# xmcd
#
# Track frame offsets:
#	150
#	18154
#	31889
#	52635
#	68421
#	84989
#	101652
#	114902
#	130289
#	144837
#	161942
#	177672
#	194347
#	212087
#	227207
#	242765
#
# Disc length: 3478 seconds
#
# Revision: 1
# Processed by: cddbd v1.5.2PL0 Copyright (c) Steve Scherf et al.
# Submitted via: audiograbber 1.83.01
#
DISCID=ce0d9410
DTITLE=Various Artist - Erg Nu Country Traxx 36
DYEAR=1900
DGENRE=
TTITLE0=Dixie Chicks and Ricky Skaggs - Walk Softly On This Heart Of Mine
TTITLE1=Tracy Byrd - Ten Rounds With Jose Cuervo
TTITLE2=Sara Evans - I Keep Looking
TTITLE3=Darryl Worley - I Miss My Friend
TTITLE4=Blake Shelton - Ol' Red
TTITLE5=Brett James - Chasin' Amy
TTITLE6=Hometown News - Minivan
TTITLE7=Reba Mcentire - Sweet Music Man
TTITLE8=SheDaisy - Get Over Yourself
TTITLE9=Rhett Akins - Highway Sunrise
TTITLE10=Leslie Satcher - The Slow Way Home
TTITLE11=Montgomery Gentry - Didn't I
TTITLE12=Kenny Rogers - Harder Cards
TTITLE13=Kasey Chambers - Not Pretty Enough
TTITLE14=Sixwire - Look At Me Now
TTITLE15=Marie Sisters - Real Bad Mood
EXTD=
EXTT0=
EXTT1=
EXTT2=
EXTT3=
EXTT4=
EXTT5=
EXTT6=
EXTT7=
EXTT8=
EXTT9=
EXTT10=
EXTT11=
EXTT12=
EXTT13=
EXTT14=
EXTT15=
PLAYORDER=
